<?xml version="1.0" encoding="UTF-8"?>
<svg xmlns="http://www.w3.org/2000/svg" viewBox="0 0 800 600">
  <path fill="#ff1a1a" d="M400,100 C500,50 600,150 650,100 C700,50 750,150 700,200 C650,250 700,350 650,400 C600,450 500,400 450,450 C400,500 300,450 250,500 C200,550 100,500 150,450 C200,400 150,300 200,250 C250,200 300,150 350,200 C400,250 300,150 400,100 Z" opacity="0.8"/>
  <path fill="#b30000" d="M350,150 C400,100 450,200 500,150 C550,100 600,150 550,200 C500,250 550,300 500,350 C450,400 400,350 350,400 C300,450 250,400 300,350 C350,300 300,250 350,200 C400,150 300,200 350,150 Z" opacity="0.6"/>
</svg>