<?xml version="1.0" encoding="UTF-8"?>
<svg xmlns="http://www.w3.org/2000/svg" viewBox="0 0 400 500">
  <!-- Silhouette stylisée d'Alastor -->
  <path d="M200,50 C230,50 250,60 260,80 C270,100 280,110 290,120 C300,130 310,150 310,170 C310,190 300,210 290,230 C280,250 270,270 270,290 C270,310 280,330 290,350 C300,370 310,390 310,410 C310,430 300,450 280,460 C260,470 240,480 220,480 C200,480 180,470 160,460 C140,450 130,430 130,410 C130,390 140,370 150,350 C160,330 170,310 170,290 C170,270 160,250 150,230 C140,210 130,190 130,170 C130,150 140,130 150,120 C160,110 170,100 180,80 C190,60 210,50 200,50" fill="#b30000"/>
  
  <!-- Sourire inquiétant -->
  <path d="M170,180 C180,190 190,195 200,195 C210,195 220,190 230,180 C220,200 210,205 200,205 C190,205 180,200 170,180 Z" fill="#000000"/>
  
  <!-- Yeux -->
  <ellipse cx="180" cy="160" rx="10" ry="15" fill="#ff0000"/>
  <ellipse cx="220" cy="160" rx="10" ry="15" fill="#ff0000"/>
  
  <!-- Monocle -->
  <circle cx="220" cy="160" r="20" fill="none" stroke="#ff8c00" stroke-width="2"/>
  <line x1="220" y1="140" x2="220" y2="130" stroke="#ff8c00" stroke-width="2"/>
  <line x1="220" y1="130" x2="240" y2="120" stroke="#ff8c00" stroke-width="2"/>
  
  <!-- Cheveux -->
  <path d="M200,50 C230,40 250,45 260,55 C270,65 280,70 270,80 C260,90 240,85 230,75 C220,65 210,60 200,50" fill="#ff4500"/>
  <path d="M200,50 C170,40 150,45 140,55 C130,65 120,70 130,80 C140,90 160,85 170,75 C180,65 190,60 200,50" fill="#ff4500"/>
  
  <!-- Antennes de cheveux -->
  <path d="M200,50 C210,30 220,20 230,10 C220,20 210,30 200,40" fill="#ff4500"/>
  <path d="M200,50 C190,30 180,20 170,10 C180,20 190,30 200,40" fill="#ff4500"/>
</svg>