<svg xmlns="http://www.w3.org/2000/svg" viewBox="0 0 512 512" width="100" height="100">
  <path fill="#ff4500" d="M256 0C114.6 0 0 114.6 0 256s114.6 256 256 256 256-114.6 256-256S397.4 0 256 0zm0 464c-114.7 0-208-93.3-208-208S141.3 48 256 48s208 93.3 208 208-93.3 208-208 208z"/>
  <path fill="#ff8c00" d="M352 256c0 53-43 96-96 96s-96-43-96-96 43-96 96-96 96 43 96 96z"/>
  <path fill="#ff4500" d="M384 256c0 70.7-57.3 128-128 128s-128-57.3-128-128 57.3-128 128-128 128 57.3 128 128zm32 0c0-88.4-71.6-160-160-160S96 167.6 96 256s71.6 160 160 160 160-71.6 160-160z"/>
  <circle fill="#1a0500" cx="256" cy="256" r="32"/>
</svg>